<svg width="389" height="151" fill="none" xmlns="http://www.w3.org/2000/svg"><path d="M12.703 78.79l-3.808-.978-.782-.976v-12.11c11.589-8.593 22.852-12.89 33.79-12.89 7.486 0 13.704 1.4 18.652 4.2 4.948 2.799 8.528 6.314 10.742 10.546 2.213 4.167 3.32 9.05 3.32 14.649l-.488 19.628v29.102c0 3.971.26 6.38.781 7.227.586.846 1.237 1.432 1.953 1.757.716.261 2.051.489 4.004.684l5.567.488.78.879v3.906l-.78.782c-4.753-.391-9.18-.586-13.282-.586-3.906 0-8.593.195-14.062.586l-1.465-1.368.39-15.722-21.288 16.601c-3.581 1.498-7.487 2.246-11.72 2.246-5.208 0-9.7-.944-13.476-2.832-3.71-1.888-6.575-4.524-8.594-7.91-1.953-3.385-2.93-7.487-2.93-12.304 0-9.571 2.996-17.025 8.985-22.364 5.99-5.403 22.33-9.993 49.024-13.77 0-9.635-2.149-16.405-6.446-20.312-4.297-3.971-10.058-5.957-17.285-5.957-3.776 0-7.226.554-10.351 1.66-3.06 1.107-4.818 2.019-5.274 2.735-.456.65-2.213 4.622-5.273 11.914l-.684.488zm45.313 15.429c-18.23 3.06-29.59 6.347-34.082 9.863-4.493 3.516-6.739 8.952-6.739 16.309 0 10.156 5.046 15.234 15.137 15.234 8.659 0 17.22-5.013 25.684-15.039V94.219zM128.523.37l1.856 1.172c-.716 7.487-1.074 22.494-1.074 45.02v61.23c0 1.432.13 6.055.39 13.867.261 7.748.521 12.272.782 13.574.325 1.302.781 2.246 1.367 2.832a4.354 4.354 0 002.148 1.172c.847.13 4.362.391 10.547.782l.879.781v4.101l-.781.879c-8.138-.521-15.983-.781-23.535-.781-7.487 0-15.3.26-23.438.781l-.879-.879V140.8l.88-.781c6.314-.391 9.862-.684 10.644-.879a4.362 4.362 0 002.148-1.172c.651-.651 1.074-1.595 1.27-2.832.26-1.302.52-5.502.781-12.598.325-7.161.488-12.565.488-16.211V55.742l-.391-20.703c-.195-7.227-.423-12.24-.683-15.039-.195-2.8-.488-4.46-.879-4.98-.391-.521-1.074-.912-2.051-1.172-.976-.26-4.915-.391-11.816-.391l-.88-.879V8.477l.782-.88c12.435-1.432 22.917-3.84 31.445-7.226zm49.805 7.91c3.06 0 5.664 1.074 7.813 3.223 2.148 2.148 3.222 4.752 3.222 7.812 0 2.995-1.074 5.567-3.222 7.715-2.149 2.149-4.753 3.223-7.813 3.223-2.995 0-5.599-1.042-7.812-3.125-2.149-2.149-3.223-4.753-3.223-7.813 0-3.06 1.074-5.664 3.223-7.812 2.213-2.149 4.817-3.223 7.812-3.223zm8.301 43.653l1.855 1.27c-.716 8.528-1.074 19.368-1.074 32.519v22.07c0 1.432.13 6.055.391 13.867.26 7.748.521 12.272.781 13.574.326 1.302.781 2.246 1.367 2.832a4.353 4.353 0 002.149 1.172c.846.13 4.362.391 10.547.782l.878.781v4.101l-.781.879c-8.138-.521-15.983-.781-23.535-.781-7.487 0-15.299.26-23.437.781l-.879-.879V140.8l.879-.781c6.315-.391 9.863-.684 10.644-.879a4.357 4.357 0 002.148-1.172c.652-.651 1.075-1.595 1.27-2.832.26-1.302.521-5.502.781-12.598.326-7.161.489-12.565.489-16.211V87.09c0-2.604-.131-6.153-.391-10.645s-.488-7.259-.684-8.3c-.13-1.042-.618-1.79-1.465-2.247-.846-.52-2.539-.78-5.078-.78l-8.203-.099-.879-.78v-4.2l.782-.781c12.434-1.498 22.916-3.939 31.445-7.324zm31.641 64.355h4.199l.879.879c.13 5.469.455 10.156.976 14.062 2.018 3.06 5.502 5.567 10.449 7.52 4.948 1.888 9.831 2.832 14.649 2.832 6.901 0 12.402-1.855 16.504-5.566 4.166-3.711 6.25-8.138 6.25-13.282 0-2.799-.749-5.208-2.246-7.226-1.498-2.084-3.776-3.776-6.836-5.078-2.995-1.368-8.399-2.963-16.211-4.785-6.706-1.563-11.393-2.767-14.063-3.614-2.669-.911-5.241-2.409-7.715-4.492a20.523 20.523 0 01-5.664-7.617c-1.302-3.06-1.953-6.413-1.953-10.059 0-8.724 3.451-15.69 10.352-20.898 6.966-5.274 15.625-7.91 25.976-7.91 4.362 0 9.115.618 14.258 1.855 5.143 1.172 9.05 2.311 11.719 3.418l.879 1.367c-.521 2.605-.846 9.44-.977 20.508l-.879.879h-3.906l-.879-.879c-.26-3.971-.618-6.738-1.074-8.3-.456-1.628-1.628-3.354-3.516-5.176-1.888-1.889-4.557-3.451-8.007-4.688-3.451-1.302-7.097-1.953-10.938-1.953-3.971 0-7.324.586-10.058 1.758-2.67 1.172-4.851 2.962-6.543 5.37-1.628 2.345-2.442 5.21-2.442 8.595 0 2.474.488 4.687 1.465 6.64 1.042 1.953 2.604 3.548 4.687 4.785a24.376 24.376 0 006.543 2.54l10.645 2.734c9.115 2.213 15.625 4.134 19.531 5.761 3.972 1.628 7.031 4.102 9.18 7.422 2.148 3.256 3.223 7.227 3.223 11.914 0 8.985-3.711 16.7-11.133 23.145-7.422 6.445-16.96 9.668-28.614 9.668-4.101 0-9.212-.456-15.332-1.367-6.054-.912-11.23-1.921-15.527-3.028l-.488-1.269.976-6.543c.326-2.018.521-4.037.586-6.055.065-2.083.131-6.413.196-12.988l.879-.879zm95.605-37.5l-3.809-.977-.781-.976v-12.11c11.589-8.593 22.852-12.89 33.789-12.89 7.487 0 13.705 1.4 18.653 4.2 4.947 2.799 8.528 6.314 10.742 10.546 2.213 4.167 3.32 9.05 3.32 14.649l-.488 19.628v29.102c0 3.971.26 6.38.781 7.227.586.846 1.237 1.432 1.953 1.757.716.261 2.051.489 4.004.684l5.566.488.782.879v3.906l-.782.782c-4.752-.391-9.179-.586-13.281-.586-3.906 0-8.594.195-14.062.586l-1.465-1.368.391-15.722-21.29 16.601c-3.58 1.498-7.487 2.246-11.718 2.246-5.209 0-9.701-.944-13.477-2.832-3.711-1.888-6.575-4.524-8.594-7.91-1.953-3.385-2.929-7.487-2.929-12.304 0-9.571 2.994-17.025 8.984-22.364 5.99-5.403 22.331-9.993 49.024-13.77 0-9.635-2.149-16.405-6.446-20.312-4.297-3.971-10.058-5.957-17.285-5.957-3.776 0-7.227.554-10.352 1.66-3.059 1.107-4.817 2.019-5.273 2.735-.456.65-2.214 4.622-5.273 11.914l-.684.488zm45.313 15.43c-18.23 3.06-29.59 6.347-34.083 9.863-4.492 3.516-6.738 8.952-6.738 16.309 0 10.156 5.046 15.234 15.137 15.234 8.659 0 17.22-5.013 25.684-15.039V94.219z" fill="#FDFDFD"/></svg>