<svg width="32" height="32" fill="none" xmlns="http://www.w3.org/2000/svg"><g clip-path="url(#clip0_2_178)" fill="#06A42A"><path d="M4.587.156C4.15.375.312 4.225.131 4.625-.038 5-.044 5.681.12 6.031c.068.144.468.594.937 1.063l.819.812L3.8 5.981l1.925-1.918h.287c.407 0 .613.18.657.587l.037.294-1.95 1.95-1.944 1.95 1.3 1.3 1.294 1.293 1.25-1.25c1.331-1.33 1.5-1.456 1.85-1.312.275.119.431.35.431.644 0 .25-.037.293-1.293 1.556l-1.3 1.3 1.237 1.238 1.231 1.23 3.013-3.018 3.019-3.012-4.281-4.288C7.65 1.612 6.2.2 6.03.119c-.38-.175-1.043-.163-1.443.037zM25.531.119c-.1.062-.65.587-1.218 1.156L23.28 2.312l3.175 3.17 3.169 3.174 1.1-1.094c.6-.6 1.137-1.168 1.188-1.262.125-.238.112-.7-.032-.975-.069-.125-1.268-1.375-2.675-2.781L26.65 0h-.469c-.344 0-.512.031-.65.119zm-13.144 13.15C6.95 18.706 2.5 23.187 2.5 23.219c0 .081 6.2 6.281 6.281 6.281.082 0 19.844-19.762 19.844-19.844 0-.081-6.2-6.281-6.281-6.281-.038 0-4.513 4.45-9.957 9.894zm7.719 6.906c-1.637 1.637-2.981 3-2.981 3.019 0 .056 2.369 2.431 2.425 2.431.019 0 .619-.575 1.325-1.281 1.244-1.238 1.294-1.282 1.538-1.282.3 0 .512.138.618.4.163.388.094.488-1.262 1.857l-1.281 1.294 1.3 1.287 1.306 1.288 1.937-1.938c1.757-1.75 1.963-1.938 2.144-1.938.25 0 .55.144.637.307.032.069.063.244.063.387 0 .256-.025.288-1.325 1.613l-1.894 1.931-.562.575.812.813c.45.45.925.868 1.069.937.375.188 1.031.175 1.438-.031.437-.219 4.274-4.069 4.456-4.469.169-.369.175-1.056.012-1.406-.081-.175-1.425-1.556-4.4-4.519-2.362-2.344-4.312-4.262-4.337-4.262-.031 0-1.394 1.343-3.038 2.987zM.887 27.519C.125 30.113 0 30.594 0 30.963c0 .368.025.462.163.643.2.263.45.394.756.394.2 0 6.425-1.769 6.518-1.856.026-.025-5.568-5.644-5.63-5.644-.02 0-.432 1.356-.92 3.019z"/></g><defs><clipPath id="clip0_2_178"><path fill="#fff" d="M0 0h32v32H0z"/></clipPath></defs></svg>