<svg width="32" height="32" fill="none" xmlns="http://www.w3.org/2000/svg"><g clip-path="url(#clip0_70_3193)" fill="#06A42A"><path d="M14 .094c-2.775.344-5.325 1.375-7.625 3.081-.938.7-2.5 2.263-3.2 3.2C1.45 8.7.431 11.244.088 14.063c-.107.925-.107 2.95 0 3.874.343 2.82 1.362 5.363 3.087 7.688.7.938 2.263 2.5 3.2 3.2 2.325 1.725 4.869 2.744 7.688 3.088.925.106 2.95.106 3.874 0 2.82-.344 5.363-1.363 7.688-3.088.938-.7 2.5-2.262 3.2-3.2 1.725-2.325 2.744-4.869 3.088-7.688.106-.925.106-2.95 0-3.875-.344-2.818-1.363-5.362-3.088-7.687-.7-.938-2.262-2.5-3.2-3.2C23.3 1.45 20.756.431 17.937.088c-.893-.107-3.05-.1-3.937.006zm3.606 3.187a13.033 13.033 0 016.156 2.538c.67.5 1.92 1.75 2.42 2.419 3.512 4.65 3.512 10.875 0 15.524-.5.67-1.75 1.92-2.42 2.42-4.65 3.512-10.875 3.512-15.524 0-.67-.5-1.92-1.75-2.42-2.42-3.512-4.65-3.512-10.875 0-15.524.5-.663 1.75-1.913 2.4-2.407 1.807-1.362 3.95-2.256 6.095-2.544.887-.118 2.393-.118 3.293-.006z"/><path d="M14.188 5.156a11.023 11.023 0 00-9.094 9.513l-.044.393h.65c.725 0 .95.088 1.181.45.157.257.132.732-.043.97-.232.306-.494.393-1.175.393H5.05l.044.419c.169 1.65.937 3.656 1.95 5.081.537.762 1.819 2.044 2.581 2.581.719.513 2.137 1.232 2.906 1.475.644.206 1.569.413 2.131.475l.388.044.019-.75c.018-.644.043-.781.156-.931.444-.594 1.106-.594 1.55 0 .113.15.138.287.156.925.013.562.038.744.1.744.269 0 1.157-.163 1.775-.32 2.444-.63 4.65-2.15 6.15-4.25.506-.712 1.225-2.118 1.488-2.93a11.36 11.36 0 00.469-2.207l.043-.481h-.681c-.781 0-1.019-.081-1.262-.444-.126-.175-.144-.268-.126-.544.026-.28.063-.368.263-.562l.225-.231.781-.019c.544-.019.782-.044.782-.094 0-.043-.044-.331-.094-.637-.394-2.394-1.507-4.488-3.294-6.188-.8-.768-1.6-1.325-2.644-1.843-1.237-.62-2.456-.988-3.6-1.094l-.475-.044-.031.613c-.031.706-.137.962-.444 1.15-.237.15-.662.162-.919.03-.356-.187-.462-.43-.487-1.137-.031-.737.044-.687-.762-.55zm-3.388 4.5c.156.069 1.025.888 2.712 2.582L16 14.718l1.325-1.324c.731-.725 1.394-1.35 1.469-1.388.212-.106.593-.081.819.056.4.244.568.782.362 1.176-.05.093-.856.93-1.8 1.868-1.369 1.356-1.75 1.707-1.938 1.757-.512.137-.474.168-3.6-2.944-3.13-3.125-3.15-3.157-3.018-3.644.075-.287.344-.569.606-.65.263-.075.319-.075.575.031z"/></g><defs><clipPath id="clip0_70_3193"><path fill="#fff" d="M0 0h32v32H0z"/></clipPath></defs></svg>