<svg width="32" height="32" fill="none" xmlns="http://www.w3.org/2000/svg"><path d="M15.719.087c-.6.194-.913.425-2.094 1.55-.731.7-1.281 1.175-1.406 1.22-.175.062-.463.037-1.732-.145-1.718-.237-1.937-.25-2.456-.118-.762.2-1.406.706-1.756 1.381-.244.456-.281.625-.556 2.212a33.817 33.817 0 01-.288 1.488c-.087.275-.269.394-1.619 1.112-1.4.738-1.818 1.013-2.068 1.357-.475.65-.657 1.243-.6 1.975.043.562.143.812.943 2.456.357.738.6 1.313.6 1.425 0 .113-.243.688-.6 1.425-.8 1.644-.9 1.894-.943 2.456-.057.732.125 1.325.6 1.975.25.344.668.619 2.068 1.356 1.35.72 1.532.838 1.62 1.113.037.113.174.838.312 1.613.275 1.556.337 1.78.637 2.287.463.769 1.413 1.281 2.356 1.275.163-.006.97-.1 1.794-.212 1.213-.17 1.531-.194 1.694-.138.119.038.706.55 1.412 1.219 1.038.994 1.27 1.181 1.675 1.375.457.218.494.225 1.188.225s.731-.007 1.187-.225c.407-.194.638-.381 1.675-1.375.882-.838 1.27-1.169 1.438-1.219.187-.056.506-.025 1.7.138 1.681.237 1.956.25 2.469.118a2.766 2.766 0 001.756-1.381c.244-.456.281-.625.556-2.212a33.72 33.72 0 01.288-1.488c.087-.275.268-.394 1.618-1.113 1.4-.737 1.82-1.012 2.07-1.356.474-.65.655-1.244.6-1.975-.045-.562-.145-.812-.945-2.456-.356-.738-.6-1.313-.6-1.425 0-.113.244-.688.6-1.425.8-1.644.9-1.894.944-2.456.056-.732-.125-1.325-.6-1.975-.25-.344-.669-.619-2.069-1.357-1.35-.718-1.53-.837-1.618-1.112a33.737 33.737 0 01-.288-1.487c-.275-1.588-.312-1.757-.556-2.213a2.766 2.766 0 00-1.756-1.381c-.52-.131-.738-.119-2.457.119-1.268.18-1.556.206-1.73.143-.126-.043-.676-.518-1.42-1.225C18.32.637 18.094.45 17.687.256 17.262.05 17.162.031 16.594.02c-.394-.013-.72.012-.875.068zm-2.063 7.757c.55.143 1.05.443 1.494.881.675.675.987 1.444.987 2.4-.006 1.256-.743 2.4-1.925 2.975-2.33 1.125-5.068-.881-4.712-3.469.175-1.281 1.2-2.45 2.444-2.781.45-.119 1.256-.125 1.712-.006zm9.15 1.218c.463.132.775.663.638 1.082-.1.3-12.594 12.769-12.85 12.818-.613.125-1.225-.53-1.038-1.106.081-.237 12.5-12.687 12.756-12.787.207-.082.244-.082.494-.007zm-2.019 8.57c.2.037.57.162.807.274 2.118 1.025 2.593 3.719.95 5.35-.688.681-1.432.994-2.357.994a3.151 3.151 0 01-2.312-.95c-.206-.206-.45-.5-.538-.65-.718-1.225-.625-2.706.232-3.769.825-1.012 2-1.475 3.218-1.25z" fill="#06A42A"/><path d="M12.312 9.594c-.8.256-1.243 1.137-.987 1.981.094.319.512.788.831.931.275.131.813.156 1.163.056.318-.087.737-.474.906-.837.569-1.225-.625-2.55-1.913-2.131zm7.338 9.85c-.306.087-.744.512-.9.875-.269.637-.056 1.437.494 1.837 1.25.919 2.875-.25 2.43-1.743-.105-.35-.624-.882-.955-.97-.294-.08-.794-.08-1.07 0z" fill="#06A42A"/></svg>