<svg width="32" height="32" fill="none" xmlns="http://www.w3.org/2000/svg"><g clip-path="url(#clip0_70_3197)" fill="#06A42A"><path d="M.8 1.294C.081 2.013-.5 2.63-.5 2.669c0 .087 3.669 4.662 3.763 4.7.037.012.306-.219.606-.519l.537-.537 7.344 7.343L19.094 21l-1.063 1.063-1.062 1.062 1.55 1.55 1.544 1.544 2.825-2.832 2.83-2.825-1.543-1.543-1.55-1.55-1.063 1.062-1.062 1.063-7.344-7.344-7.344-7.344.532-.531c.293-.294.531-.563.531-.594C6.869 3.7 2.312.038 2.187.012 2.138.006 1.538.556.8 1.294z"/><path d="M23.813.119C21.575.613 19.73 2.33 19.1 4.525c-.3 1.025-.338 2.344-.094 3.25l.069.244-1.912 1.912-1.913 1.913 2.206 2.206 2.2 2.2 1.913-1.912 1.912-1.913.244.069c.512.137 1.444.194 2.087.131 1.457-.15 2.7-.725 3.744-1.719a6.67 6.67 0 001.769-2.95c.188-.669.206-2.519.031-3.144-.119-.43-.719-2.062-.787-2.137-.025-.025-.794.706-1.719 1.631l-1.681 1.681-.6-.156c-.331-.087-.631-.187-.669-.231-.044-.037-.144-.337-.231-.669l-.157-.6 1.682-1.681c.925-.925 1.656-1.694 1.631-1.719-.081-.075-1.6-.637-2.044-.762-.656-.182-2.25-.207-2.968-.05zM9.744 17.35l-1.6 1.6-.494-.113c-.75-.18-2.431-.162-3.131.026-2.407.65-4.175 2.412-4.85 4.812-.113.419-.132.65-.132 1.7 0 1.15.007 1.25.17 1.781.093.306.28.794.418 1.075a6.64 6.64 0 004.787 3.681c.775.144 2.225.094 2.932-.1 2.494-.68 4.331-2.625 4.843-5.125.113-.55.132-.8.107-1.53-.013-.513-.075-1.07-.138-1.338l-.106-.463 1.6-1.6 1.6-1.6-2.206-2.206-2.2-2.2-1.6 1.6zM7.03 23.437c.4.194.838.632 1.031 1.025.213.45.244 1.138.063 1.613a2.205 2.205 0 01-1.625 1.35c-1.388.25-2.644-.994-2.425-2.406.112-.7.65-1.375 1.319-1.644.45-.175 1.2-.15 1.637.063zm17.126 1.251L21.344 27.5l1.781 1.781c.994 1 1.962 1.913 2.188 2.069.63.431 1.2.606 2.068.637 1.269.044 2.113-.28 2.963-1.137.569-.575.831-1.019 1.037-1.756.175-.657.15-1.725-.062-2.344-.275-.788-.5-1.063-2.438-3.019-1.012-1.019-1.862-1.856-1.881-1.856-.019 0-1.3 1.262-2.844 2.813z"/></g><defs><clipPath id="clip0_70_3197"><path fill="#fff" d="M0 0h32v32H0z"/></clipPath></defs></svg>