<svg width="25" height="24" fill="none" xmlns="http://www.w3.org/2000/svg"><path fill-rule="evenodd" clip-rule="evenodd" d="M3.019 0h18.963A2.519 2.519 0 0124.5 2.519v18.963A2.519 2.519 0 0121.982 24H3.018A2.519 2.519 0 01.5 21.482V2.518A2.519 2.519 0 013.019 0zm0 1.63a.889.889 0 00-.89.889v14.29l3.53-3.529a2.25 2.25 0 013.182 0l1.629 1.629a.75.75 0 001.06 0l5.38-5.379a2.25 2.25 0 013.182 0l2.78 2.78V2.519a.889.889 0 00-.89-.89H3.02zm-.89 19.852V18.93l4.59-4.59a.75.75 0 011.061 0l1.63 1.63a2.25 2.25 0 003.182 0l5.379-5.379a.75.75 0 011.06 0l3.84 3.84v7.05a.89.89 0 01-.889.89H3.02a.889.889 0 01-.89-.89zM9.5 7.5a1.5 1.5 0 11-3 0 1.5 1.5 0 013 0zm1.5 0a3 3 0 11-6 0 3 3 0 016 0z" fill="#06A42A"/></svg>