<svg width="95" height="37" fill="none" xmlns="http://www.w3.org/2000/svg"><path d="M3.969 19.11l-.914-.235-.188-.234v-2.907c2.781-2.062 5.485-3.093 8.11-3.093 1.796 0 3.289.336 4.476 1.007 1.188.672 2.047 1.516 2.578 2.532.532 1 .797 2.172.797 3.515l-.117 4.711v6.985c0 .953.062 1.53.187 1.734.141.203.297.344.47.422.171.062.491.117.96.164l1.336.117.188.211v.938l-.188.187a39.049 39.049 0 00-3.187-.14c-.938 0-2.063.046-3.375.14l-.352-.328.094-3.773-5.11 3.984c-.859.36-1.796.539-2.812.539-1.25 0-2.328-.227-3.234-.68-.891-.453-1.579-1.086-2.063-1.898-.469-.813-.703-1.797-.703-2.953 0-2.297.719-4.086 2.156-5.367 1.438-1.297 5.36-2.399 11.766-3.305 0-2.313-.516-3.938-1.547-4.875-1.031-.953-2.414-1.43-4.149-1.43-.906 0-1.734.133-2.484.399-.734.265-1.156.484-1.266.656-.109.156-.53 1.11-1.265 2.86l-.164.116zm10.875 3.703c-4.375.734-7.102 1.523-8.18 2.367-1.078.843-1.617 2.148-1.617 3.914 0 2.437 1.21 3.656 3.633 3.656 2.078 0 4.133-1.203 6.164-3.61v-6.328zM31.766.288l.445.281c-.172 1.797-.258 5.399-.258 10.805V26.07c0 .344.031 1.453.094 3.328.062 1.86.125 2.946.187 3.258.078.313.188.54.328.68.141.14.313.234.516.281.203.031 1.047.094 2.531.188l.211.187v.985l-.187.21A88.514 88.514 0 0029.984 35c-1.797 0-3.672.063-5.625.188l-.21-.211v-.985l.21-.187c1.516-.094 2.368-.164 2.555-.211a1.04 1.04 0 00.516-.282c.156-.156.258-.382.304-.68.063-.312.125-1.32.188-3.023.078-1.718.117-3.015.117-3.89v-12.14l-.094-4.97c-.047-1.734-.101-2.937-.164-3.609-.047-.672-.117-1.07-.21-1.195-.094-.125-.259-.22-.493-.282-.234-.062-1.18-.093-2.836-.093l-.21-.211v-.985l.187-.21c2.984-.344 5.5-.922 7.547-1.735zm11.953 1.899c.734 0 1.36.257 1.875.773.515.516.773 1.14.773 1.875 0 .719-.258 1.336-.773 1.851a2.554 2.554 0 01-1.875.774c-.719 0-1.344-.25-1.875-.75a2.553 2.553 0 01-.774-1.875c0-.734.258-1.36.774-1.875.531-.516 1.156-.773 1.875-.773zm1.992 10.476l.445.305c-.172 2.047-.258 4.648-.258 7.804v5.297c0 .344.032 1.453.094 3.328.063 1.86.125 2.946.188 3.258.078.313.187.54.328.68.14.14.312.234.515.281.204.031 1.047.094 2.532.188l.21.187v.985l-.187.21A88.514 88.514 0 0043.93 35c-1.797 0-3.672.063-5.625.188l-.211-.211v-.985l.21-.187c1.516-.094 2.368-.164 2.555-.211a1.04 1.04 0 00.516-.282c.156-.156.258-.382.305-.68.062-.312.125-1.32.187-3.023.078-1.718.117-3.015.117-3.89v-4.617c0-.625-.03-1.477-.093-2.555s-.118-1.742-.164-1.992c-.032-.25-.149-.43-.352-.54-.203-.124-.61-.187-1.219-.187l-1.968-.023-.211-.188V14.61l.187-.187c2.984-.36 5.5-.945 7.547-1.758zm7.594 15.445h1.008l.21.211c.032 1.313.11 2.438.235 3.375.484.735 1.32 1.336 2.508 1.805 1.187.453 2.359.68 3.515.68 1.657 0 2.977-.446 3.961-1.336 1-.89 1.5-1.953 1.5-3.188 0-.672-.18-1.25-.539-1.734-.36-.5-.906-.906-1.64-1.219-.72-.328-2.016-.71-3.891-1.148-1.61-.375-2.734-.664-3.375-.867-.64-.22-1.258-.579-1.852-1.079a4.924 4.924 0 01-1.36-1.828 6.102 6.102 0 01-.468-2.414c0-2.094.828-3.765 2.485-5.015 1.671-1.266 3.75-1.899 6.234-1.899 1.047 0 2.187.149 3.422.445 1.234.282 2.172.555 2.812.82l.211.329c-.125.625-.203 2.265-.234 4.922l-.211.21h-.938l-.21-.21c-.063-.953-.149-1.617-.258-1.992-.11-.391-.39-.805-.844-1.243-.453-.453-1.094-.828-1.922-1.125a7.373 7.373 0 00-2.625-.468c-.953 0-1.758.14-2.414.421a3.712 3.712 0 00-1.57 1.29c-.39.562-.586 1.25-.586 2.062 0 .594.117 1.125.351 1.594.25.469.625.851 1.125 1.148.5.282 1.024.485 1.57.61l2.555.656c2.188.531 3.75.992 4.688 1.383.953.39 1.687.984 2.203 1.78.516.782.773 1.735.773 2.86 0 2.157-.89 4.008-2.671 5.555-1.782 1.547-4.07 2.32-6.868 2.32-.984 0-2.21-.11-3.68-.328-1.453-.219-2.695-.46-3.726-.726l-.117-.305.234-1.57c.078-.485.125-.97.14-1.453.017-.5.032-1.54.048-3.118l.21-.21zm22.945-9l-.914-.234-.188-.234v-2.907c2.782-2.062 5.485-3.093 8.11-3.093 1.797 0 3.289.336 4.476 1.007 1.188.672 2.047 1.516 2.579 2.532.53 1 .796 2.172.796 3.515l-.117 4.711v6.985c0 .953.063 1.53.188 1.734.14.203.297.344.468.422.172.062.493.117.961.164l1.336.117.188.211v.938l-.188.187a39.045 39.045 0 00-3.187-.14c-.938 0-2.063.046-3.375.14l-.352-.328.094-3.773-5.11 3.984c-.859.36-1.796.539-2.812.539-1.25 0-2.328-.227-3.234-.68-.89-.453-1.578-1.086-2.063-1.898-.469-.813-.703-1.797-.703-2.953 0-2.297.719-4.086 2.156-5.367 1.438-1.297 5.36-2.399 11.766-3.305 0-2.313-.516-3.938-1.547-4.875-1.031-.953-2.414-1.43-4.148-1.43-.907 0-1.735.133-2.485.399-.734.265-1.156.484-1.265.656-.11.156-.532 1.11-1.266 2.86l-.164.116zm10.875 3.703c-4.375.735-7.102 1.524-8.18 2.368-1.078.843-1.617 2.148-1.617 3.914 0 2.437 1.211 3.656 3.633 3.656 2.078 0 4.133-1.203 6.164-3.61v-6.328z" fill="#D02D15"/></svg>