<svg width="118" height="24" fill="none" xmlns="http://www.w3.org/2000/svg"><path d="M10.971 2.461c.252-.775 1.348-.775 1.6 0l1.654 5.092a.84.84 0 00.8.58h5.353c.815 0 1.153 1.043.494 1.522l-4.33 3.146a.84.84 0 00-.306.94l1.654 5.092c.252.775-.635 1.419-1.294.94l-4.33-3.147a.84.84 0 00-.99 0l-4.33 3.147c-.66.479-1.546-.165-1.294-.94l1.654-5.092a.84.84 0 00-.305-.94L2.67 9.655c-.66-.48-.32-1.521.494-1.521h5.353a.84.84 0 00.8-.581l1.654-5.092zm23.543 0c.251-.775 1.347-.775 1.599 0l1.654 5.092a.84.84 0 00.8.58h5.353c.815 0 1.154 1.043.495 1.522L40.084 12.8a.84.84 0 00-.306.94l1.654 5.092c.252.775-.635 1.419-1.294.94l-4.33-3.147a.84.84 0 00-.989 0l-4.331 3.147c-.66.479-1.546-.165-1.294-.94l1.654-5.092a.84.84 0 00-.305-.94l-4.331-3.146c-.66-.48-.32-1.521.494-1.521h5.354a.84.84 0 00.8-.581l1.654-5.092zm23.542 0c.251-.775 1.347-.775 1.599 0l1.654 5.092a.84.84 0 00.8.58h5.354c.814 0 1.153 1.043.494 1.522L63.626 12.8a.84.84 0 00-.306.94l1.655 5.092c.251.775-.635 1.419-1.294.94l-4.331-3.147a.84.84 0 00-.989 0l-4.331 3.147c-.659.479-1.546-.165-1.294-.94l1.654-5.092a.84.84 0 00-.305-.94l-4.331-3.146c-.66-.48-.32-1.521.494-1.521h5.354a.84.84 0 00.8-.581l1.654-5.092zm23.542 0c.251-.775 1.347-.775 1.599 0l1.654 5.092a.84.84 0 00.8.58h5.354c.814 0 1.153 1.043.494 1.522L87.168 12.8a.84.84 0 00-.306.94l1.655 5.092c.251.775-.635 1.419-1.294.94l-4.331-3.147a.84.84 0 00-.989 0l-4.331 3.147c-.659.479-1.546-.165-1.294-.94l1.654-5.092a.84.84 0 00-.305-.94l-4.331-3.146c-.659-.48-.32-1.521.494-1.521h5.354a.84.84 0 00.8-.581l1.654-5.092zm23.542 0c.252-.775 1.347-.775 1.599 0l1.655 5.092a.84.84 0 00.799.58h5.354c.814 0 1.153 1.043.494 1.522L110.71 12.8a.841.841 0 00-.306.94l1.655 5.092c.251.775-.635 1.419-1.294.94l-4.331-3.147a.841.841 0 00-.989 0l-4.331 3.147c-.659.479-1.545-.165-1.294-.94l1.655-5.092a.841.841 0 00-.306-.94l-4.33-3.146c-.66-.48-.321-1.521.493-1.521h5.354a.842.842 0 00.8-.581l1.654-5.092z" fill="#1C2C2C" opacity=".2"/></svg>