<svg width="48" height="48" fill="none" xmlns="http://www.w3.org/2000/svg"><g clip-path="url(#clip0_51_1898)" fill="#FDFDFD"><path d="M30.938 3.234V6.47l-4.172 2.784-4.172 2.775v5.129H48v-5.12l-4.266-2.812-4.265-2.803V0h-8.532v3.234zM0 28.313v5.625l9.919-.02 9.91-.027.027-5.607.019-5.596H0v5.625zm15.469-1.172V28.5H4.406v-2.719h11.062v1.36zm7.125 8.203V48H48V22.687H22.594v12.657zm8.343-8.203V28.5h-2.719v-2.719h2.72v1.36zm5.625 0V28.5h-2.719v-2.719h2.72v1.36zm5.626 0V28.5h-2.72v-2.719h2.72v1.36zm0 9.609v5.625h-13.97v-11.25h13.968v5.625zM0 42.328V48h19.875V36.656H0v5.672zm15.469-1.312v1.359H4.406v-2.719h11.062v1.36z"/></g><defs><clipPath id="clip0_51_1898"><path fill="#fff" d="M0 0h48v48H0z"/></clipPath></defs></svg>