<svg width="48" height="48" fill="none" xmlns="http://www.w3.org/2000/svg"><path d="M42.469.253c-.478.244-11.25 8.972-11.25 9.103 0 .038 1.35 1.416 3 3.066l3 3 .225-.235c.74-.768 8.681-10.64 8.897-11.062.253-.478.262-.581.234-1.36-.047-.937-.16-1.237-.703-1.837-.6-.656-1.069-.872-2.044-.91-.778-.027-.881-.018-1.36.235zM27.938 11.962c-1.529 1.266-1.922 1.679-2.288 2.372-.516.994-.516.966.16 1.163 1.546.46 3.28 1.715 4.2 3.065.412.61.984 1.8 1.124 2.344.141.535.132.535 1.022.113.6-.282 1.566-1.22 2.663-2.578l.74-.929-3.225-3.225c-1.772-1.771-3.243-3.225-3.272-3.215-.028 0-.534.403-1.125.89z" fill="#FDFDFD"/><path d="M4.078 11.944c-1.04.328-1.903 1.06-2.334 1.978-.14.281-.29.825-.338 1.19-.047.385-.093 4.697-.093 9.891v9.216h39.28v-9.3c0-7.847-.018-9.282-.13-9.169a552.61 552.61 0 00-2.626 3.216c-1.65 2.025-2.709 3.243-3.121 3.58a7.965 7.965 0 01-2.597 1.407c-.357.113-.685.263-.722.338-.038.075-.14.468-.225.872-.328 1.48-1.453 3.29-2.653 4.228-1.566 1.228-3.272 1.734-5.925 1.734-1.632 0-2.475.16-3.14.581-1.004.628-1.163.685-2.063.685-1.013 0-1.491-.188-2.203-.853-1.21-1.125-1.36-2.747-.404-4.247.535-.835.6-1.163.685-3.432.094-2.4.225-3.084.881-4.406.712-1.425 1.631-2.4 3.056-3.234.628-.366 2.044-.872 2.728-.985.31-.046.357-.084.413-.403.103-.553.581-1.622 1.031-2.315.235-.347.422-.657.422-.666 0-.019-4.397-.037-9.769-.028-7.622 0-9.862.028-10.153.122z" fill="#FDFDFD"/><path d="M22.425 17.915c-1.369.225-2.813 1.229-3.516 2.429-.468.815-.628 1.65-.721 3.843-.104 2.532-.3 3.394-1.032 4.453-.328.47-.356.704-.112.92.244.224.44.196.91-.123 1.077-.74 1.893-.928 4.405-1.03 2.822-.113 3.657-.357 4.753-1.388.807-.75 1.37-1.81 1.576-2.963.13-.75.112-1.19-.047-1.978-.6-2.84-3.3-4.65-6.216-4.163zM1.313 37.472c.018 2.11.721 3.431 2.23 4.172l.629.31 5.784.027 5.794.028v3.178h-1.397c-1.284 0-1.406.02-1.697.216a1.428 1.428 0 000 2.381l.31.216h8.015c7.969 0 8.016 0 8.335-.197.403-.253.628-.675.628-1.21 0-.534-.225-.956-.628-1.209-.291-.178-.46-.197-1.744-.197h-1.416V42.01l5.794-.028 5.784-.028.544-.216c.76-.309 1.575-1.087 1.96-1.875.29-.58.309-.693.346-1.771l.028-1.154h-39.3v.535z" fill="#FDFDFD"/></svg>