<svg width="48" height="48" fill="none" xmlns="http://www.w3.org/2000/svg"><g clip-path="url(#clip0_51_1887)" fill="#FDFDFD"><path d="M26.522.15C22.359.9 18.825 3.881 17.4 7.856c-.46 1.294-.647 2.457-.647 4.05 0 2.09.347 3.544 1.294 5.438 1.612 3.225 4.912 5.643 8.578 6.29 1.003.178 3.328.15 4.266-.047 3.272-.703 5.962-2.512 7.697-5.165 1.33-2.063 1.921-4.022 1.93-6.516.01-3.31-1.134-6.084-3.487-8.447-1.79-1.79-3.89-2.897-6.319-3.318-1.021-.179-3.206-.17-4.19.009zm2.812 3.3c.385.29.591.628.638 1.087.028.235.103.432.16.432.055 0 .365.122.684.281.74.347 1.387.994 1.743 1.762.675 1.454.3 2.7-.853 2.813-.815.075-1.369-.403-1.51-1.313-.055-.356-.15-.543-.327-.703-.235-.197-.347-.215-1.228-.215-.91 0-.985.018-1.257.243-.243.207-.29.31-.29.657 0 .553.122.665 2.39 2.334 2.241 1.64 2.672 2.044 3.075 2.85.282.572.3.684.3 1.556 0 .844-.028.994-.272 1.5-.159.31-.506.788-.778 1.06-.468.468-1.303.956-1.64.956-.131 0-.169.084-.169.347 0 .469-.347 1.04-.75 1.265-.403.216-1.031.179-1.397-.084-.31-.234-.572-.74-.572-1.134 0-.206-.056-.328-.16-.366-1.574-.525-2.605-1.725-2.718-3.16-.066-.712.056-1.077.46-1.415.815-.684 2.043-.14 2.193.985.038.318.14.543.3.703.216.225.281.234 1.285.234H29.7l.244-.29c.244-.282.319-.723.178-1.07-.028-.093-1.125-.956-2.419-1.921-2.531-1.885-2.803-2.156-3.16-3.169-.271-.769-.206-1.95.141-2.653.47-.966 1.285-1.688 2.213-1.969.356-.103.384-.14.384-.44 0-1.05 1.257-1.763 2.053-1.163zm-8.85 22.06c-2.165.187-4.397 1.246-6.037 2.868-.769.769-1.725 2.11-1.678 2.372.018.084 1.312 2.372 2.878 5.09l2.86 4.941h5.39c5.672 0 7.022-.065 8.344-.384 2.212-.553 3.084-1.05 7.603-4.313 7.856-5.68 7.584-5.475 7.772-6.15.159-.572.121-.993-.15-1.537-.516-.994-1.688-1.378-2.672-.872-.16.084-2.11 1.463-4.331 3.066-4.913 3.543-5.063 3.646-5.747 3.928-.535.215-.591.215-4.67.244-3.768.028-4.152.018-4.433-.132-.9-.478-.9-1.865 0-2.353.28-.15.693-.169 4.434-.215 2.897-.038 4.181-.076 4.312-.16.3-.169.779-.712.882-.994.346-.909-.075-1.968-.947-2.418-.319-.17-.581-.178-3.338-.178h-2.981l-.366-.375c-1.2-1.229-3.43-2.26-5.156-2.4-.356-.029-.76-.057-.89-.076-.132-.009-.61.01-1.079.047zM7.781 29.878c-.122.047-6.543 3.74-6.956 3.994-.31.197-.572.806-.525 1.219.066.506 6.75 12.13 7.247 12.6.281.271.394.309.825.309.478 0 .637-.084 4.05-2.053 3.9-2.24 3.928-2.26 3.928-3.094 0-.394-.3-.937-3.525-6.525-2.053-3.553-3.619-6.16-3.76-6.272-.243-.178-1.021-.29-1.284-.178z"/></g><defs><clipPath id="clip0_51_1887"><path fill="#fff" d="M0 0h48v48H0z"/></clipPath></defs></svg>