<svg width="48" height="48" fill="none" xmlns="http://www.w3.org/2000/svg"><g clip-path="url(#clip0_51_1872)" fill="#FDFDFD"><path d="M3.656.178C1.922.741.666 2.016.15 3.741.019 4.2 0 5.897 0 21.31v17.062l.44-.422a7.204 7.204 0 013.123-1.706c.374-.094 1.218-.178 2.174-.216 1.5-.056 1.575-.065 1.782-.28l.215-.235V.488L7.51.244C7.284 0 7.275 0 5.73.01 4.5.01 4.058.047 3.655.178zm39.769.6l-.769.769L44.56 3.45l1.894 1.894.778-.778c.731-.732.769-.797.769-1.191 0-.413-.01-.431-1.481-1.894C45.047.01 45.038 0 44.616 0c-.394 0-.45.037-1.191.778zm-2.597 2.597l-.656.656 1.903 1.903 1.894 1.894.675-.684.684-.675-1.875-1.875c-1.031-1.032-1.894-1.875-1.922-1.875-.028 0-.347.3-.703.656zm-6.497 6.497l-4.706 4.706 1.922 1.922 1.922 1.922 4.715-4.716L42.891 9l-1.922-1.922-1.922-1.922-4.716 4.716z"/><path d="M9.356 23.925l-.028 11.934-.206.385c-.29.553-.994 1.134-1.556 1.303-.32.094-.89.14-1.763.14-1.547 0-2.062.094-2.99.544C1.547 38.85.497 40.134.14 41.484c-.216.835-.178 2.12.075 2.87.58 1.705 2.006 3.065 3.675 3.505.487.122 3.056.141 22.106.141H47.54l.225-.234.234-.225V12.46l-.234-.226L47.54 12h-5.494l-4.172 4.181c-2.297 2.297-4.35 4.275-4.566 4.406-.553.329-.815.394-2.625.6-1.462.17-2.24.188-8.043.188h-6.422v9.563h20.719V26.24l.234-.225c.319-.328.731-.31 1.087.037l.272.272v6.694c0 7.519.028 7.162-.712 7.725l-.347.272-9.038.028-9.037.019-.225-.226c-.347-.346-.319-.815.056-1.125l.29-.243h6.263V32.53h-9.56v12.356l-.29.244c-.376.319-.695.31-1.032-.028l-.272-.272V21.375H13.21c-.787 0-1.49-.047-1.593-.094-.263-.14-.478-.61-.403-.89.028-.132.168-.32.29-.422.235-.188.403-.188 7.725-.188h7.49l-.055-.356c-.029-.188.037-1.153.15-2.128.262-2.372.3-2.447 1.903-4.06L29.953 12H9.375l-.019 11.925z"/><path d="M28.556 16.284c-.028.197-.122.938-.197 1.641-.234 1.94-.234 1.94 2.035 1.669.89-.113 1.631-.216 1.66-.244.055-.047-3.282-3.413-3.385-3.413-.028 0-.085.16-.113.347zM27.375 36v3.469h9.563V32.53h-9.563V36z"/></g><defs><clipPath id="clip0_51_1872"><path fill="#fff" d="M0 0h48v48H0z"/></clipPath></defs></svg>